<svg xmlns="http://www.w3.org/2000/svg" width="246" height="360" fill="none"><path fill="#AD7E1E" d="M103.84 175.18c3.78 1.88 9.16.88 13.17.22 4.33-.71 8.56-1.99 12.58-3.74 8.13-3.54 14.62-9.34 20.43-15.92 5.57-6.3 11.18-12.7 16.04-19.57 2.43-3.44 4.68-7.03 6.6-10.78 2.01-3.93 3.93-8.16 4.25-12.61.15-2.1-.04-4.21.04-6.32.09-2.37.35-4.73.75-7.06.73-4.37 1.92-8.64 3.08-12.9 2.38-8.77 4.92-17.97 2.84-27.08-.22-.97-.48-2.93-1.49-3.45-.86-.45-2.5.06-3.42.19-2.4.35-4.81.68-7.21 1.01-4.42.62-8.94 1.06-13.26 2.25-3.9 1.08-7.49 2.86-10.32 5.8-2.23 2.32-3.97 5.05-5.58 7.82-3.6 6.21-6.9 13.13-13.4 16.82-3.91 2.22-8.32 3.17-12.46 4.84-4.43 1.78-8.07 4.66-11.64 7.76-.32.28-.9-.18-.67-.55 2.2-3.53 5.41-6.02 9.1-7.9 3.92-1.99 8.28-2.83 12.33-4.52 7.53-3.14 11-10.04 14.83-16.76 3.59-6.3 7.76-11.78 14.82-14.34 4.23-1.53 8.75-2.09 13.19-2.71l7.21-1.02c2.01-.28 4.53-1.07 6.56-.61 1.51.34 2.2 1.5 2.65 2.89.74 2.29 1.1 4.79 1.26 7.19.32 4.73-.28 9.46-1.15 14.1-1.78 9.45-5.29 18.59-5.96 28.23-.17 2.44-.03 4.9-.22 7.34-.18 2.29-.81 4.52-1.58 6.67-1.49 4.16-3.46 8.18-5.78 11.94-4.74 7.67-10.61 14.59-16.68 21.22-6.9 7.54-14.08 14.55-23.42 19a55.636 55.636 0 0 1-14.12 4.56c-4.37.78-9.94 1.72-14.06-.41-.99-.52-.29-2.1.72-1.6h-.03z"/><path fill="#AD7E1E" d="M99.78 109.69c.779-2.11 1.789-4.13 3.219-5.88.35-.42.76-.78 1.09-1.21.33-.43.68-.85 1.04-1.26.75-.85 1.56-1.65 2.4-2.4.49-.43 1.06.4.58.83-.8.71-1.55 1.47-2.26 2.28-.34.39-.68.78-.99 1.2-.32.43-.55.95-.81 1.42-1.02 1.85-2.01 3.73-2.73 5.73-.37 1.03-1.93.32-1.55-.7l.01-.01z"/><path fill="#AD7E1E" d="M106.389 96.9c4.12-4.31 9.03-7.89 13.64-11.65 10.32-8.41 20.62-16.87 31.22-24.93.48-.37.96.37.53.76-9.39 8.23-19.07 16.13-28.73 24.04-4.64 3.8-9.54 7.44-13.87 11.61-1.99 1.92-3.87 4.03-5.26 6.43-1.34 2.3-2.07 4.82-2.77 7.36-.19.7-1.33.8-1.37-.05-.26-5.14 3.21-10.02 6.61-13.57zm-3.689 78.54c15.95-9.58 25.2-26.2 32.37-42.8 8-18.52 13.88-37.9 25.38-54.69 3.21-4.68 6.76-9.11 10.62-13.27 3.41-3.68 6.93-7.15 11.43-9.47.29-.15.55.35.26.51-8.51 4.83-14.66 13.65-20 21.62-5.7 8.5-10.15 17.73-13.99 27.2-7.18 17.71-12.67 36.42-23.95 52.11-5.72 7.96-12.71 15.13-21.18 20.16-.91.54-1.87-.81-.95-1.36l.01-.01zm31.02-56.74c2.72-6.28 5.49-12.56 7.86-18.98 2.21-5.97 4.03-12.05 6.84-17.78 2.46-5.03 5.47-9.83 8.92-14.23s7.44-8.94 12.06-12.14c.96-.66 2.32.69 1.44 1.56-4.02 3.96-8.18 7.63-11.75 12.02a82.97 82.97 0 0 0-9.4 14.34c-2.88 5.6-4.9 11.56-7.19 17.4-2.42 6.17-5.27 12.11-8.16 18.07-.19.39-.78.12-.61-.27l-.01.01z"/><path fill="#AD7E1E" d="M141.479 90.15c2.02-6.42 4.79-12.59 8.3-18.34 1.66-2.72 3.46-5.35 5.42-7.87 1.03-1.33 2.11-2.62 3.22-3.88.97-1.1 2.06-2.8 3.49-3.26.79-.25 1.39.49 1.14 1.23-.45 1.32-2.04 2.39-2.99 3.39-1.1 1.16-2.17 2.35-3.21 3.56-2.12 2.5-4.09 5.12-5.89 7.86-3.62 5.5-6.54 11.44-8.74 17.64-.18.5-.89.15-.73-.33h-.01zm-37.459 84.31c15.96-4.48 26.59-18.66 33.7-32.82 4-7.96 7.32-16.24 11.11-24.3 3.53-7.5 7.36-14.85 11.8-21.86 5.08-8.03 10.92-15.56 17.64-22.29.19-.19.51.07.32.26-12.27 12.53-21.5 27.74-28.51 43.75-6.85 15.65-11.96 32.81-23.77 45.65-5.85 6.37-13.07 11.51-21.45 13.89-1.5.43-2.35-1.87-.84-2.29v.01z"/><path fill="#AD7E1E" d="M104.64 175.64c6.38-.98 12.11-2.99 17.48-6.66 5.1-3.48 9.45-7.94 13.21-12.81 8.48-11.01 14.12-23.98 21.18-35.89.1-.18.39-.05.29.13-5.49 9.99-9.51 20.75-15.41 30.52-5.3 8.78-12.08 16.88-21 22.14-4.63 2.73-10.08 4.89-15.52 5.1-1.65.06-1.87-2.29-.24-2.54l.01.01zm53.73-59.47c2.78-5.18 6.06-10.14 9.62-14.82 1.79-2.35 3.75-4.57 5.8-6.7 1.05-1.09 2.12-2.15 3.21-3.19.95-.91 1.92-2.16 3.23-2.44.75-.16 1.22.75.97 1.36-.48 1.17-1.98 1.97-2.93 2.77-1.14.96-2.25 1.96-3.33 2.99-2.04 1.95-3.98 4.02-5.86 6.12-3.89 4.35-7.13 9.14-9.93 14.26-.27.49-1.06.14-.8-.36l.02.01z"/><path fill="#AD7E1E" d="M109.37 174.76c4.62-1.24 9.05-2.21 13.43-4.25 4.37-2.04 8.42-4.55 12.06-7.72 3.89-3.4 7.14-7.48 10.31-11.53 3.37-4.31 6.63-8.71 9.77-13.19.19-.27.56.06.39.32a312 312 0 0 1-9.53 14.32c-3.07 4.35-6.25 8.65-10.15 12.3-3.44 3.22-7.33 6.07-11.55 8.18-4.24 2.13-9.3 4.11-14.08 4.47-1.63.12-2.35-2.44-.65-2.9zm-6.641 1.6c.95-3.37 2.51-6.64 3.79-9.9 1.25-3.2 2.5-6.39 3.75-9.59 2.59-6.62 5.31-13.19 7.95-19.78 5.29-13.19 10.5-26.42 15.84-39.59.16-.39.73-.12.59.26-4.87 13.24-9.86 26.44-14.78 39.67-2.44 6.56-4.82 13.13-7.29 19.68-1.21 3.21-2.45 6.42-3.67 9.62-1.3 3.4-2.36 7.04-3.98 10.29-.55 1.11-2.55.65-2.19-.66h-.01z"/><path fill="#AD7E1E" d="M63.19 99.97c5.71 11.23 10.37 22.88 13.86 34.99 3.25 11.28 5.18 24 12.09 33.79 3.44 4.88 9.42 8.07 14.769 3.94 1.23-.95 2.79.82 1.82 1.98-3.35 4.04-9.54 3.55-13.66 1.03-4.97-3.03-7.89-8.6-10.11-13.78-2.67-6.25-4.26-12.84-5.8-19.43-1.58-6.75-3.27-13.46-5.35-20.07-2.38-7.54-5.01-14.98-8.09-22.27-.13-.31.33-.46.48-.17l-.01-.01z"/><path fill="#AD7E1E" d="M47.52 95.26c5.82 10.12 4.18 22.22 8.61 32.77 2.43 5.8 6.47 10.83 10.2 15.83 3.69 4.95 7.49 9.84 11.52 14.52 2.29 2.67 4.65 5.29 7.09 7.82 2.35 2.44 5.01 4.63 7.2 7.21.78.92-.58 1.85-1.43 1.31-2.57-1.64-4.77-3.97-6.93-6.1a134.44 134.44 0 0 1-6.16-6.47c-4.11-4.62-7.97-9.45-11.7-14.37-3.71-4.9-7.66-9.82-10.59-15.24-2.8-5.17-3.9-10.68-4.43-16.49-.63-6.88-.66-14.12-4-20.35-.23-.42.38-.86.62-.44z"/><path fill="#AD7E1E" d="M20.01 91.46c2.34 4.53 9.94 4.42 14.27 4.21 5.32-.26 10.32-1.71 15.45-2.98 4.97-1.23 9.98-2.29 15.1-2.71 4.8-.39 9.95-.44 14.28 1.98 4.11 2.3 7.48 5.91 10.75 9.23 3.28 3.33 6.28 6.85 9.13 10.54 6.13 7.94 9.79 17.99 9.92 28.05.07 6-1.54 11.39-3.14 17.1-1.7 6.05-2.15 12.21-1.17 18.44.26 1.63-2.29 1.86-2.54.24-.82-5.25-.73-10.63.39-15.84 1.12-5.21 3.2-10.14 3.76-15.48 1.11-10.71-2.65-20.64-7.79-29.82-2.51-4.48-5.81-8.54-9.41-12.18-3.29-3.32-6.95-6.72-11.26-8.65-4.95-2.21-10.68-1.62-15.87-.69-5.15.92-10.17 2.44-15.33 3.3-5.27.88-10.72 1.63-16.07 1.1-4.12-.41-9.55-1.25-11.51-5.46-.31-.67.73-1.02 1.06-.39l-.02.01z"/><path fill="#AD7E1E" d="M19.53 91.1c9.2-4.6 12.81-15.37 20.64-21.56 8.73-6.89 21.22-6.73 29.83.27 2.21 1.8 4.02 3.98 5.51 6.4 1.65 2.67 3.04 5.74 5.7 7.55.46.31-.02 1.03-.51.81-4.7-2.12-6.14-7.17-9.36-10.79-3.55-4-8.6-6.64-13.91-7.26-5.87-.69-12.06 1.09-16.63 4.82-3.82 3.11-6.58 7.28-9.46 11.21-3.07 4.19-6.39 8.03-11.2 10.24-1.06.49-1.63-1.18-.62-1.69h.01z"/><path fill="#AD7E1E" d="M20.22 91.45c5.08-1.71 9.1-5.31 13.82-7.73 4.98-2.55 10.54-3.06 16.02-3.67 10.63-1.2 22.24-2.05 31.6 4.18 8.32 5.54 11.68 15.32 17.08 23.28 3.02 4.45 6.7 8.39 9.06 13.27a35.766 35.766 0 0 1 3.54 15.48c0 6.02-1.87 11.51-3.74 17.15-2.17 6.56-2.65 13.13-3.28 19.96-.09.96-1.73.92-1.71-.06.12-5.48.52-11.04 1.93-16.35 1.35-5.08 3.57-9.92 4.46-15.12.89-5.23.51-10.68-1.09-15.74-1.72-5.45-4.98-9.75-8.32-14.29-5.53-7.51-8.67-16.7-15.5-23.27-8.25-7.94-20.04-8.36-30.78-7.22-6 .63-12.62 1.11-18.12 3.8-4.99 2.44-9.14 6.35-14.7 7.54-.69.15-.93-.98-.27-1.2v-.01z"/><path fill="#AD7E1E" d="M26.18 87.91c2.41-2.24 4.65-4.61 6.94-6.97 2.2-2.27 4.79-3.95 7.59-5.39 5.62-2.9 11.7-4.22 18.03-3.8.22.01.16.35-.06.34-6.58-.29-12.81 1.6-18.44 4.93-5.13 3.03-8.48 7.9-12.57 12.12-.87.9-2.38-.4-1.49-1.23z"/><path fill="#AD7E1E" d="M28.18 86.5c6.51-4.92 13.92-8.46 21.97-9.99 7.03-1.34 16.27-2.12 22.52 2.08.23.16-.02.58-.27.43-3.41-2.11-7.41-2.49-11.34-2.44-3.88.05-7.76.55-11.52 1.49-7.38 1.83-14.4 5.13-20.31 9.95-.91.74-2.01-.79-1.05-1.51v-.01z"/><path fill="#AD7E1E" d="M20.67 92.04c2.49-.08 4.86-.57 7.14-1.6 2.18-.99 4.27-2.13 6.48-3.03 4.31-1.76 8.76-3.03 13.34-3.81.15-.03.16.2.02.23-4.96 1.03-9.82 2.72-14.28 5.14-4.08 2.21-7.72 4.76-12.54 4.85-1.13.02-1.31-1.73-.16-1.77v-.01z"/><path fill="#AD7E1E" d="M22.58 93.24c4.9.69 10.22-.74 14.97-1.85 4.55-1.06 9.09-2.2 13.68-3.11 8.42-1.67 17.44-2.28 25.67.61.2.07.06.36-.13.29-9.25-3-18.82-1.34-27.99 1.04-4.49 1.17-8.94 2.5-13.48 3.51-4.17.93-8.74 2.06-13.02 1.36-1.2-.2-.89-2.03.31-1.86l-.01.01zm30.69-9.15c5.56-1.32 11.16-1.67 16.85-1.4 5.08.24 10.62.63 14.45 4.41.63.62-.2 1.68-.9 1.08-1.94-1.65-4-2.95-6.5-3.56-2.44-.59-5.03-.72-7.52-.86-5.42-.31-10.94-.17-16.31.64-.18.03-.25-.27-.07-.31zm31.8 19.87c-.15-.34.38-.52.54-.2 5.59 11.03 6.12 23.44 7.29 35.51.63 6.46 1.53 12.81 3.37 19.06 1.57 5.31 3.23 11.47 7.809 15.01 1.29.99-.29 2.8-1.59 1.91-4.65-3.15-6.52-8.84-8.16-13.94-2-6.25-3.14-12.61-3.71-19.14-1.11-12.82-.26-26.16-5.56-38.21h.01z"/><path fill="#AD7E1E" d="M94.93 127.77c-.06-.25.32-.4.39-.14 1.95 7.58 3.04 15.28 3.92 23.04.44 3.89.979 7.77 1.789 11.6.41 1.95.92 3.89 1.54 5.78.56 1.71 1.61 3.44 1.53 5.26-.03.74-1.03.99-1.53.57-1.33-1.09-1.77-3.06-2.29-4.64-.57-1.74-1.03-3.5-1.43-5.28-.86-3.87-1.32-7.8-1.66-11.74-.71-8.14-.43-16.45-2.26-24.45zM51.8 94.46c4.02 11.9 5.29 24.59 9.91 36.29 2.5 6.33 6.52 11.71 10.46 17.2 4.05 5.66 8.46 11.2 12.16 17.11.76 1.22-.93 2.4-1.83 1.28-4.5-5.62-8.41-11.82-12.55-17.71-3.75-5.34-7.22-10.59-9.68-16.66-4.8-11.87-6.03-24.8-10.11-36.91-.36-1.07 1.28-1.67 1.64-.6z"/><path fill="#AD7E1E" d="M58.19 108.75c2.07 9.79 6.39 19.09 10.86 27.99 4.45 8.85 9.7 17.42 13.5 26.58.57 1.38-1.47 2.02-2.12.77-4.67-9-9.41-18.02-13.76-27.19-4.27-8.99-7.47-18.24-8.89-28.12-.04-.27.36-.29.41-.04v.01zM65 90.84c8.52 12.93 13.63 27.86 15.84 43.14.03.21-.29.23-.32.03-2.57-15.12-8.84-29.2-17.44-41.82-.85-1.25 1.09-2.61 1.93-1.34l-.01-.01zM28.87 35.71c4.1-2.05 9.12 1.56 12.31 3.83 4.24 3.03 8.51 5.97 12.8 8.93 3.6 2.49 7.05 5.26 9.86 8.64 1.46 1.75 2.78 3.38 3.6 5.53.93 2.43 1.54 4.82 2.96 7.04.58.91-.64 2.22-1.48 1.36-2.94-3-3.63-7.59-5.3-11.32-1.81-4.05-5.69-6.98-9.21-9.49-4.06-2.9-8.31-5.53-12.61-8.05-1.9-1.12-3.84-2.37-5.94-3.07-2.29-.77-4.47-.9-6.8-1.36-1.11-.22-1.1-1.58-.19-2.04zM5.48 58.38c.58 7.76.98 15.78 5.12 22.57 3.79 6.21 7.83 12.43 12.29 18.18 4.43 5.7 9.37 10.99 15.28 15.18 5.36 3.79 11.9 6.61 14.59 13.04.52 1.24 2.45.55 1.97-.72-2.61-6.9-10.32-9.99-15.79-14.21-5.95-4.59-11-10.31-15.49-16.31-2.28-3.04-4.51-6.11-6.65-9.25-2.16-3.18-4.55-6.4-6.2-9.89-1.77-3.76-2-7.94-2.39-12.02-.42-4.39-.83-8.8-.89-13.21-.09-6.98 1.14-15.97-4.99-20.97a.822.822 0 0 0-1.33.5c-1.16 6.36 3.65 11.47 3.86 17.64 0 .21.21.29.38.25 0 3.07 0 6.13.22 9.21l.02.01zm-.27-14c0 .39 0 .77.01 1.16-.29-1.47-.78-2.91-1.34-4.37-.97-2.52-2.18-5.24-1.74-7.92 2.18 3.32 2.96 7.1 3.06 11.13h.01z"/><path fill="#AD7E1E" d="M2.6 29.69c.65.19 1.54-1.08 2.15-1.39.87-.45 1.91-.63 2.85-.86 2.16-.55 4.61-1.48 6.87-1.22 1.87.21 3.44 1.33 4.94 2.39 2.06 1.45 4.06 3.01 5.96 4.66 3.76 3.27 7.11 6.96 10.81 10.29 3.84 3.46 7.9 6.69 11.97 9.87.24.19-.05.52-.29.35-4.01-2.74-8.09-5.41-12.02-8.27-3.86-2.81-7.08-6.29-10.65-9.44-1.73-1.52-3.49-3-5.3-4.42-1.61-1.26-3.58-3.3-5.72-3.52-1.45-.15-3.06.57-4.44.97-1.16.34-2.41.57-3.53 1.01-1.42.56-2.22 2.31-3.95 1.8-1.37-.4-1.01-2.61.36-2.2l-.01-.02zM37.54 42.2C48 49.64 58.22 57.47 67.74 66.08c.89.81-.32 2.26-1.19 1.44-9.35-8.82-18.98-17.3-29.28-25-.21-.16.05-.47.26-.32h.01z"/><path fill="#AD7E1E" d="M52.64 56.91c1.95 1.76 4 3.34 6.18 4.81 1.08.72 2.18 1.41 3.28 2.1 1.12.69 2.35 1.28 3.4 2.06.81.59-.04 1.99-.94 1.51-1.16-.61-2.21-1.51-3.25-2.31-1.05-.8-2.06-1.66-3.05-2.52-2-1.73-3.94-3.54-5.86-5.36-.17-.16.06-.44.24-.28v-.01zM3.52 29.68c2.27-.24 3.95 1.29 5.36 2.87 2.15 2.41 4.24 4.9 6.28 7.4 4.11 5.05 8.16 10.16 12.36 15.14.12.14-.11.29-.23.16-4-4.42-8.13-8.73-12.21-13.07-1.86-1.98-3.68-4.01-5.5-6.04-1.42-1.58-3.42-4.86-5.89-4.61-1.2.12-1.37-1.73-.17-1.86v.01zm7.08 29.04c2.03 4.95 5.02 9.44 8.06 13.82 1.51 2.18 2.98 4.38 4.46 6.58 1.46 2.17 3.31 4.36 4.36 6.75.38.87-.82 1.29-1.36.71-1.84-2-3.14-4.73-4.6-7.03-1.46-2.31-2.94-4.6-4.33-6.95-2.64-4.43-5.04-8.95-6.9-13.77-.07-.19.22-.3.3-.11h.01zm3.33 12.93c3.27 5.41 6.92 10.58 10.46 15.82.65.97-.9 2.02-1.47 1.03-3.19-5.49-6.14-11.12-9.37-16.59-.15-.25.22-.52.38-.26zm14.38 24.87c1.11.45 1.88 1.25 2.7 2.11 1.07 1.11 2.13 2.24 3.19 3.36 1.99 2.11 3.91 4.28 5.85 6.44 3.99 4.45 8.22 8.89 11.65 13.79.37.53-.36 1.26-.86.79-4.13-3.93-7.74-8.48-11.46-12.79-1.9-2.21-3.84-4.39-5.73-6.63-1.85-2.2-3.56-4.66-5.6-6.69-.18-.18 0-.49.24-.39l.02.01zm5.63-.03c7.61 7.72 14.4 16.16 20.24 25.29.44.68-.6 1.41-1.04.73-5.79-9.02-12.42-17.51-19.83-25.25-.43-.45.18-1.22.63-.76v-.01zm144.649 17.03c2.97-3.35 5.93-6.7 8.89-10.04 1.4-1.58 2.82-3.18 4.45-4.52 1.41-1.16 3.02-1.98 4.53-2.99 2.92-1.95 4.09-4.79 5.43-7.9 1.5-3.5 3.88-6.29 7-8.47 6.07-4.25 13.8-5.95 20.8-8.03 3.52-1.05 7.21-1.84 10.67-3.09 3.06-1.11 3.88-3.52 4.5-6.49.49-2.33 3.04-16.4-3.29-13.28-1.34.66-2.43 1.97-3.54 2.94-1.11.98-2.24 1.94-3.46 2.78-1.42.98-3 1.8-4.7 2.13-1.87.36-3.72-.01-5.58-.22-2.93-.32-5.67.09-8.05 1.95-2.31 1.81-3.89 4.31-5.29 6.85-3.06 5.58-5.12 11.65-8.21 17.22-1.63 2.94-3.57 5.68-5.97 8.06-2.79 2.77-6.03 5.12-9.01 7.68-4.15 3.56-9.2 7.48-10.14 13.19l-.75.84c-.95 1.06.76 2.47 1.7 1.41l.02-.02zm27.15-33.86c2.41-5.08 4.34-10.49 7.39-15.22 1.55-2.4 3.58-4.86 6.41-5.71 3.23-.97 6.59.66 9.88.4 2.73-.21 5.18-1.52 7.32-3.16 1.11-.85 2.14-1.8 3.16-2.75.68-.64 2.78-3.32 3.51-2.09.41.69.16 2.32.14 3.03-.03.88-.09 1.76-.17 2.64-.16 1.62-.42 3.22-.76 4.81-.42 1.91-.82 3.77-2.74 4.71-1.35.66-2.89 1.05-4.31 1.53-6.64 2.24-13.5 3.93-20.06 6.42-3.46 1.31-6.9 3.03-9.77 5.4v-.01z"/><path fill="#AD7E1E" d="M184.5 63.38c1.29-2.59 3.55-4.88 5.24-7.24 1.54-2.15 2.99-4.45 4.83-6.36 3.37-3.51 8.57-4.41 13.25-4.64 4.91-.25 9.94.34 14.47 2.32 2.45 1.07 4.69 2.57 7.18 3.56 2.56 1.01 6.28 2.98 8.97 1.81.22-.09.38.23.19.36-1.68 1.14-3.54.92-5.45.52-2.35-.49-4.62-1.18-6.79-2.21-2.38-1.14-4.62-2.48-7.16-3.28-2.7-.84-5.59-1.26-8.42-1.23-4.89.06-11.2.74-14.79 4.38-1.87 1.9-3.42 4.16-5.09 6.23-1.74 2.17-3.28 4.82-5.34 6.69-.55.5-1.4-.29-1.09-.91z"/><path fill="#AD7E1E" d="M199.77 58.05c4.59-2.74 9.53-4.75 14.75-5.93 2.59-.59 5.23-1.02 7.87-1.25 1.4-.12 2.8-.13 4.2-.1 1.12.03 2.18-.06 3.14.56.47.3.22.98-.2 1.16-1.02.46-2.2.15-3.3.13-1.23-.03-2.46 0-3.68.01-2.55.05-5.07.3-7.57.78-5.16.98-10.16 2.79-14.78 5.28-.42.23-.86-.37-.44-.62l.01-.02zm-15.05 12.83c1.2-1.66 2.67-3.13 4.2-4.48 1.54-1.36 3.19-2.6 4.95-3.65.25-.15.51.21.26.38-1.65 1.14-3.18 2.42-4.52 3.91-1.32 1.47-2.4 3.08-3.41 4.77-.66 1.1-2.25.12-1.49-.93h.01zm-1.22 5.73c.43-.98 1.3-1.83 2-2.64.75-.86 1.52-1.7 2.33-2.52 1.61-1.63 3.32-3.17 5.11-4.59 3.57-2.83 7.57-4.97 11.69-6.87.22-.1.34.24.13.35-4.03 1.98-7.67 4.7-11.04 7.65a52.12 52.12 0 0 0-4.71 4.69c-.72.81-1.41 1.64-2.08 2.49-.67.86-1.25 1.86-2.07 2.58-.72.63-1.71-.36-1.37-1.13l.01-.01zm-1.271 5.85c1.77-2.43 4.3-4.35 6.58-6.29 2.47-2.09 4.94-4.19 7.47-6.2 4.85-3.85 10.08-7.26 15.6-10.06.17-.09.33.21.16.3-5.42 3.03-10.32 6.78-15.05 10.78a133.56 133.56 0 0 0-7.06 6.4c-2.16 2.1-4.22 4.47-6.77 6.08-.67.42-1.39-.38-.93-1.01zm-2.369 18.29c3.67-3.12 7.43-6.12 11.22-9.09 3.78-2.97 7.34-6.27 11.32-8.97.9-.61 1.79.7.96 1.38-3.72 3.03-7.85 5.57-11.67 8.48-3.82 2.92-7.6 5.89-11.43 8.79-.37.28-.75-.29-.41-.59h.01zm-.47-5.15c7.19-5.82 14.82-11.09 22.19-16.69.18-.14.37.14.2.28-7.22 5.86-14.06 12.15-21.26 18.03-.98.8-2.12-.82-1.13-1.62zm-62.041-85.06c.35 3.46 1.58 6.92 2.68 10.2 1.03 3.09 1.99 6.63 4.04 9.21.23.29.53.38.82.37.52.16 1.1.1 1.57-.27.95-.75.74-1.97.47-3-.58-2.16-1.33-4.3-2.06-6.42-1.37-3.98-3.28-7.81-6.45-10.66-.43-.38-1.12.02-1.07.56v.01zm4.35 9.39c-.81-2.32-1.42-4.73-2.18-7.08 1.48 1.72 2.53 3.76 3.34 5.91.54 1.43.99 2.89 1.4 4.36.24.86.44 1.74.61 2.61.09.5.19.99.17 1.49-.01.16-.03.33-.06.49-.61-.99-1.11-2.02-1.54-3.11-.62-1.55-1.2-3.11-1.75-4.68l.01.01zm-14.79 14.6c.46 2.36.96 4.72 1.56 7.05.37 1.46.81 3.09 2.38 3.66.34.12.65-.13.72-.42 1.3-.48 1.4-2.55 1.4-3.86-.01-2.58-.26-5.16-.77-7.7-.99-4.99-2.85-9.76-5.72-13.98-.32-.46-.94-.14-.94.35-.06 4.94.43 10.04 1.38 14.89l-.01.01zm-.26-12.52c1.35 2.89 2.46 5.88 3.21 8.98.5 2.06.84 4.17 1.02 6.29.04.52.29 5.76-.15 5.65a.835.835 0 0 0-.35-.01c-.48-1.18-.6-2.64-.84-3.73-.47-2.12-.9-4.25-1.37-6.37-.8-3.57-1.33-7.16-1.52-10.8v-.01zm12.171 8.44c.47 2.1 1 4.19 1.55 6.26.57 2.16 1.19 4.31 1.84 6.44.63 2.07 1.08 4.17 1.64 6.26.14.52.65.75 1.15.71 1.65.41 2.76-1.46 2.68-3.04-.14-2.57-1.03-5.3-1.76-7.76-.8-2.68-1.84-5.23-3.12-7.72-1.34-2.58-2.95-5.01-4.26-7.61-.22-.44-.86-.33-.85.19.07 2.06.69 4.23 1.14 6.24l-.01.03zm.55-3.48c1.63 2.95 2.72 6.24 3.77 9.41.66 1.99 1.31 3.99 1.83 6.02.29 1.13.55 2.28.76 3.43.06.34.24 1.3.16 2-.11-.09-.23-.15-.36-.2-.71-1.63-1.42-3.26-1.97-4.97-.65-2.05-1.26-4.11-1.84-6.18-.58-2.07-1.11-4.15-1.63-6.24-.26-1.06-.48-2.17-.74-3.27h.02zM92.64 47.45c.08.54.63.78 1.09.51.04-.02.09-.05.13-.07.35.04.71-.09.89-.51 3.42-7.7 5.67-15.93 6.12-24.36.04-.73-.91-1.09-1.26-.38-1.97 4.01-3.76 8.02-5.04 12.31-1.17 3.89-2.55 8.41-1.94 12.51l.01-.01zm1.62-3.78c.04-.85.07-1.7.16-2.55.22-2.11.64-4.17 1.24-6.21.83-2.79 1.95-5.54 3.26-8.18-.99 5.79-2.5 11.47-4.66 16.94zm34.25-17.74c.98 4.15 2.25 8.19 3.61 12.22 1.36 4.01 2.77 8.06 4.62 11.87.48.99 2 .5 1.79-.42 1.17-.81.45-3.32.21-4.42-.52-2.35-1.18-4.66-2.01-6.93-1.69-4.62-4.17-8.95-7.12-12.89-.45-.6-1.25-.09-1.1.57zm2.16 3.62c1.31 2.36 2.45 4.81 3.43 7.35.7 1.83 1.33 3.68 1.84 5.57.28 1.03.53 2.07.74 3.12.02.1.04.19.05.29-1.27-2.58-2.5-5.17-3.52-7.87-1.03-2.75-1.83-5.59-2.55-8.45l.01-.01zm-29.71 29.16c.33.54.88.46 1.23.12.24-.02.48-.13.66-.4 2.13-3.18 3.24-7.41 3.71-11.17.48-3.9.2-7.82-.72-11.63-.21-.85-1.4-.44-1.39.31.03 2.01-1.02 4.2-1.52 6.15a89.4 89.4 0 0 0-1.29 5.79c-.36 1.94-.69 3.89-1.03 5.84-.3 1.76-.62 3.38.35 5v-.01zm.97-3.28c-.03-1.1.09-2.24.13-3.14.07-1.77.35-3.53.66-5.28.3-1.75.66-3.48 1.09-5.2.28-1.13.53-2.41.96-3.59.31 2.9.24 5.82-.23 8.7a34.39 34.39 0 0 1-1.28 5.3c-.37 1.11-.84 2.16-1.32 3.21h-.01z"/><path fill="#AD7E1E" d="M111.81 80.21c.47-4.51 1.37-9 2.32-13.43.9-4.21 1.94-8.37 3.19-12.49.66-2.18 1.36-4.35 2.08-6.51.82-2.46 2.05-4.96 1.84-7.61-.05-.6.92-.87 1.07-.24.91 3.96-.97 7.83-2.15 11.55-1.46 4.59-2.83 9.24-3.99 13.91-1.1 4.42-1.92 8.89-2.45 13.41-.57 4.82-1.12 9.53-.95 14.4.03.86-1.32.98-1.33.12-.04-4.34-.08-8.79.37-13.11zm-3.011 8.27c.05-2.52.1-5.04.14-7.55.09-4.91.16-9.83.21-14.74.05-4.79.06-9.59-.26-14.38-.3-4.44-1.76-9.49-.48-13.85.15-.52.9-.42.84.14-.51 4.74.85 9.57 1.17 14.29.33 4.78.35 9.58.31 14.37-.04 4.67-.1 9.34-.14 14.02-.02 2.39-.03 4.79-.04 7.18-.01 2.31.22 4.76-.39 7.01-.13.49-.96.73-1.11.1-.53-2.15-.3-4.39-.26-6.59h.01zM96.78 74.26c.03-5.53.24-11.06.41-16.59.17-5.65.57-11.34-1.02-16.84-.27-.92 1.1-1.44 1.41-.51 1.63 4.98 1.76 10.16 1.46 15.35-.34 5.92-.83 11.79-.85 17.73-.02 5.8.21 11.6.72 17.37.25 2.76.57 5.52.94 8.27.37 2.72 1.31 5.68 1.18 8.41-.04.77-1.09.69-1.35.13-1.08-2.35-1.17-5.46-1.52-8.01-.38-2.75-.65-5.51-.86-8.28-.43-5.67-.55-11.35-.52-17.03zm7.96.62c1.3-8.81.41-17.49-.13-26.33-.06-.99 1.34-1.09 1.51-.14 1.58 8.53 2.18 16.83.67 25.42-.73 4.17-1.67 8.3-2 12.53-.36 4.57-.05 9.02.54 13.56.18 1.41-2.09 1.63-2.2.21-.65-8.47.37-16.88 1.61-25.24v-.01zm17.2 9.24c.82-1.75 1.48-3.68 2.19-5.49.77-1.96 1.42-3.96 1.97-5.99a90.66 90.66 0 0 0 2.34-11.65c.52-3.86.72-7.75 1.22-11.61.46-3.55.89-6.82 3.41-9.54.42-.45 1.06.1.73.6-1.07 1.58-1.21 3.56-1.48 5.4-.28 1.92-.48 3.84-.83 5.75-.7 3.82-1.24 7.67-1.85 11.51-.59 3.7-1.31 7.38-2.34 10.99-.5 1.75-1.07 3.49-1.72 5.19-.75 1.94-1.69 3.48-2.74 5.24-.31.52-1.15.18-.88-.4h-.02z"/><path fill="#AD7E1E" d="M115.69 85.12c.16-1.52.23-3.05.27-4.57.06-3.01-.05-6.02-.18-9.02-.27-6.13-.38-12.22-.17-18.35.21-5.98.56-11.96 1.18-17.91.5-4.84.66-10.37 3.9-14.31.57-.7 1.66.2 1.08.9-3.49 4.16-3.38 10.62-3.81 15.76-.51 6.07-.77 12.16-.72 18.25.05 5.86.4 11.71.61 17.57.1 2.77.15 5.55.06 8.32-.09 2.56.07 5.63-1.03 7.99-.34.73-1.46.55-1.54-.26-.15-1.47.19-2.9.34-4.35l.01-.02z"/><path fill="#AD7E1E" d="M112.88 42.66c1.04 2.54 1.93 5.15 2.64 7.8.33 1.24.59 2.49.82 3.75.26 1.39.56 2.82.59 4.23.02.86-1.13.94-1.31.12-.27-1.29-.38-2.62-.6-3.93-.23-1.3-.5-2.6-.78-3.89a65.08 65.08 0 0 0-2.2-7.78c-.19-.55.63-.84.84-.31v.01zM49.45 25.28c.02-3.85.29-7.69.83-11.5.28-1.92.62-3.83 1.04-5.72.3-1.34.58-2.8 1.43-3.92.79-1.03 1.8-1.41 3.08-1.42 2.04-.02 4.01.06 6.04-.19 3.99-.48 7.93-1.44 11.98-1.38 6.22.09 12.4 2.24 17.6 5.58 6.25 4.01 12.349 9.82 14.71 17.03.159.48-.531.72-.741.27-2.6-5.67-7.88-10.56-12.85-14.2-4.79-3.52-10.31-6.16-16.27-6.79-3.44-.37-6.82.1-10.21.65-1.69.27-3.37.55-5.07.74-1.7.18-3.47-.07-5.14.15-2.17.28-2.36 2.32-2.73 4.14a80.755 80.755 0 0 0-1.66 16.04c0 3.87.26 7.75.77 11.59.27 2.03.62 4.06 1.05 6.06.19.89.39 1.77.56 2.67.21 1.12.11 2.25.34 3.35.09.43-.59.56-.74.17-.38-1.01-.99-1.75-1.33-2.78-.28-.84-.5-1.69-.69-2.55-.45-2-.84-4.02-1.14-6.05-.59-3.95-.87-7.93-.86-11.93v-.01z"/><path fill="#AD7E1E" d="M53.33 4.48c.13-.47.89-.37.77.13-1.9 8.47.11 17.07 2.67 25.17 1.33 4.19 2.82 8.36 3.87 12.63.96 3.89 2.21 8.46 1.41 12.47-.15.75-1.38 1-1.6.15-.5-2.01-.63-4.13-.96-6.17-.37-2.36-.91-4.68-1.51-6.99-1.15-4.46-2.5-8.87-3.64-13.33-2.01-7.87-3.29-16.09-1.03-24.05l.02-.01z"/><path fill="#AD7E1E" d="M55.36 4.34C60.73 9 65.53 14.79 69.82 20.44c4.37 5.75 8.1 11.87 11.38 18.3.21.4-.49.77-.71.37-3.36-6.17-7.28-12.09-11.58-17.64-2.22-2.86-4.55-5.63-7.01-8.27-2.45-2.62-5.13-4.97-7.68-7.47-.81-.8.26-2.15 1.15-1.38l-.01-.01zm30.63 44.21c4.18 8.98 8.49 17.89 12.52 26.93 1.91 4.3 3.57 8.64 4.6 13.24.5 2.23.87 4.48 1.15 6.75.27 2.23.66 4.58.48 6.82-.09 1.08-1.54.82-1.73-.06-.49-2.24-.47-4.64-.75-6.92-.29-2.3-.65-4.59-1.13-6.86-.99-4.64-2.72-9.04-4.57-13.39-3.73-8.76-7.27-17.59-10.91-26.39-.09-.22.25-.34.35-.13l-.01.01z"/><path fill="#AD7E1E" d="M66.1 23.52c6.43 9.87 12.79 19.75 18.34 30.15 5.47 10.25 10.48 20.86 14.48 31.77 2.259 6.18 3.999 12.59 3.989 19.22 0 1.29-1.99 1.5-2.02.19-.17-7.63-2.44-14.89-5.22-21.94-2.66-6.77-5.64-13.42-8.83-19.95-6.5-13.32-13.48-26.48-21.08-39.2-.14-.23.19-.46.34-.24zm14.28 42.56c8.25 13.35 15.13 27.19 20.49 41.95.48 1.32-1.57 2.08-2.06.75-5.29-14.47-11.58-28.81-18.92-42.36-.18-.33.28-.68.49-.34zM53.19 15.14c1.79 7.9 5.82 15.36 9.96 22.24 4.5 7.48 9.05 14.93 13.45 22.48.21.37-.31.75-.55.38-4.86-7.64-9.61-15.36-14.3-23.11-4.2-6.95-8.04-13.7-9.58-21.76-.11-.58.89-.82 1.03-.23h-.01z"/><path fill="#AD7E1E" d="M51.98 10.01c.06-.58 1-.68 1.15-.11.37 1.34.57 2.71 1.05 4.03.54 1.46 1.26 2.84 2.01 4.2 1.49 2.73 3.01 5.44 4.57 8.13 3.06 5.31 6.17 10.62 9.49 15.78.19.3-.25.61-.45.32-3.76-5.39-7.41-10.81-10.8-16.44-1.6-2.66-3.2-5.34-4.65-8.09-1.23-2.34-2.64-5.1-2.36-7.82h-.01zm19.9-8.59c1.07-.06 1.84.63 2.59 1.33.89.83 1.71 1.73 2.5 2.65 1.6 1.87 3.03 3.86 4.36 5.93 2.62 4.1 4.7 8.48 6.89 12.82.12.24-.29.46-.43.22-2.22-3.95-4.57-7.86-7.17-11.57-1.26-1.8-2.6-3.54-4.06-5.18-.78-.88-1.61-1.72-2.46-2.54-.42-.41-.84-.83-1.29-1.22-.44-.37-.95-.59-1.37-.98-.5-.46-.3-1.42.45-1.46h-.01zm62.719 21.7c4.15-1.22 8.07-3.33 11.23-6.3 3.29-3.09 5.44-7.16 8.62-10.34 2.84-2.83 6.15-4.59 10.2-4.74 2.2-.08 4.45.06 6.64.29 2.39.26 5.14 1.27 7.53 1 2.13-.24 3.71-1.98 5.78-2.34 1.57-.27 2.18.87 2.85 2.2 1.02 2.05 1.68 4.38 2.48 6.52.86 2.3 1.7 4.62 2.29 7 1.12 4.56.92 9.18.66 13.82-.31 5.47-.32 11.05-1.03 16.48-.64 4.94-3.15 9.34-6.25 13.16-.49.61-1.61-.04-1.2-.75 2.12-3.69 4.64-7.1 5.57-11.33.95-4.28.85-8.85 1.09-13.21.25-4.55.78-9.2.28-13.74-.47-4.35-2.29-8.39-3.84-12.42-.7-1.82-1.25-3.75-1.95-5.54-.45-1.16-.57-.88-1.36-.53-.57.25-1.1.57-1.64.87-.73.4-1.46.83-2.25 1.11-1.64.57-3.21.32-4.87.02-2.24-.4-4.5-.7-6.77-.82-2.23-.12-4.64-.25-6.82.34-2.13.58-3.91 1.88-5.43 3.44-2.8 2.87-4.66 6.5-7.33 9.49-2.64 2.96-5.89 5.32-9.49 6.97-1.79.82-3.69 1.38-5.62 1.76-2.42.48-5.76.36-6.66 3.17-.23.72-1.47.35-1.27-.38 1.08-3.97 5.27-4.23 8.59-5.2h-.03z"/><path fill="#AD7E1E" d="M122.319 33.04c-.07.45.21.88.64 1.01.44.13.89-.08 1.09-.49.17-.36.27-.75.43-1.11.15-.37.33-.72.53-1.07.04-.06.14-.17 0 0 .03-.03.05-.08.07-.11.05-.08.11-.17.17-.25.11-.16.22-.32.35-.46l.06-.06c.03-.02.06-.05.09-.07 0 0 .02-.01.02-.02.3.1.62.07.84-.18.29-.32.2-.83-.1-1.1-.52-.46-1.24-.34-1.77.03-.4.28-.71.69-.99 1.08-.31.42-.59.86-.84 1.32-.25.46-.5.95-.58 1.48h-.01zm-7.55 19.22c2.12-4.96 5.27-9.74 5.86-15.21.1-.97 1.53-.7 1.48.24-.34 5.72-3.4 10.61-5.57 15.76-.48 1.15-2.25.35-1.76-.79h-.01zm61.941 2.23c1.88-3.92 2.29-8.44 3.38-12.63 1.16-4.48 2.52-8.91 3.52-13.44 1.97-8.86 3.19-18.02 1.23-27-.13-.61.83-.69.96-.09 1.97 9.05.75 18.31-1.24 27.24-1.03 4.62-2.07 9.24-3 13.88-.83 4.16-1.03 9.03-3.17 12.78-.58 1.01-2.2.33-1.68-.76v.02z"/><path fill="#AD7E1E" d="M167.67 23.94c3.19-3.84 6.3-7.74 9.45-11.61 1.53-1.88 3.06-3.75 4.57-5.64 1.27-1.59 2.32-3.31 2.94-5.26.22-.67 1.24-.41 1.3.22.2 2.08-.88 3.72-2.17 5.26-1.63 1.94-3.4 3.76-5.1 5.64-3.54 3.9-7.11 7.77-10.61 11.71-.22.24-.6-.07-.39-.32h.01zm-45.09 58.74c7.3-7.72 12.53-16.9 18.63-25.54 3.26-4.62 6.78-8.99 10.25-13.46 3.53-4.56 6.87-9.27 10.38-13.85.25-.32.71.08.48.4-3.42 4.64-6.93 9.27-10.11 14.07-3.2 4.83-6.18 9.82-9.33 14.68-5.61 8.63-11.07 18.35-19.22 24.86-.69.55-1.68-.51-1.07-1.16h-.01zm13.059-10.05c2.74-4.26 5.72-8.39 8.62-12.54 2.92-4.16 6.04-8.16 9.25-12.11.17-.21.48.05.32.26-2.96 4.05-5.8 8.19-8.64 12.32-2.9 4.22-5.5 8.56-8.13 12.94-.63 1.04-2.08.15-1.41-.88l-.01.01zm13.191-44.96c2.95-4.13 5.76-8.38 8.59-12.59 1.4-2.08 2.76-4.17 4.11-6.28.71-1.12 1.39-2.25 2.07-3.39.64-1.07 1.19-2.22 2.05-3.13.59-.63 1.54-.01 1.26.79-.39 1.11-1.12 2.07-1.76 3.05-.72 1.1-1.46 2.2-2.18 3.3-1.41 2.15-2.84 4.29-4.3 6.4-2.93 4.24-6.1 8.26-9.33 12.26-.26.33-.74-.08-.5-.41h-.01zm8.06-17.74c1.53-2.71 3.18-5.35 4.85-7.97.68-1.06 2.34.23 1.54 1.28-3.7 4.86-7.42 9.81-10.61 15.03-.11.19-.43.05-.31-.14 1.53-2.72 2.99-5.47 4.53-8.19v-.01zm7.85 31.54c2.53-2.93 5.08-5.85 7.59-8.79 5.05-5.92 9.8-12.11 13.47-19 .07-.13.27-.04.21.09-3.32 6.89-7.6 13.24-12.27 19.28-2.37 3.06-4.84 6.02-7.35 8.96-2.69 3.15-5.25 6.3-8.46 8.93-.15.13-.41-.08-.31-.26 2.01-3.38 4.55-6.24 7.12-9.21zM91.72 258.63c-.11.08-.24.14-.36.21.43-2.79.88-5.58 1.37-8.37 1.34-7.7 2.62-15.43 3.45-23.21.86-8.01 1.03-15.95.9-24-.14-8.87-1.13-17.72-3.26-26.34-.33-1.35 1.71-2.12 2.06-.75 1.89 7.56 2.77 15.23 3.01 23.01.24 7.79-.59 15.5-1.35 23.25-1.17 11.97-2.76 23.9-4.11 35.85-.56-.11-1.16-.04-1.7.34l-.01.01zm11.309-53.82c.54-5.12 1.24-10.21 2.1-15.29.41-2.42.88-4.83 1.39-7.23.49-2.32.73-5.04 2.03-7.06.63-.98 2.14-.3 2.26.7.26 2.33-.78 4.94-1.25 7.22-.5 2.4-.99 4.81-1.46 7.22-.97 4.93-1.84 9.88-2.59 14.85-1.5 9.92-2.72 19.88-3.09 29.91-.01.41-.73.39-.73-.03.06-10.11.29-20.24 1.35-30.29h-.01z"/><path fill="#AD7E1E" d="M104.32 175.34c.4-.15.81.07.97.45.44 1.06.89 2.11 1.33 3.17.44 1.05.96 2.09 1.25 3.2.08.31 0 .64-.31.79-.27.14-.65.08-.82-.2-.62-1.01-1.03-2.13-1.49-3.22-.46-1.07-.92-2.14-1.38-3.22-.16-.38.08-.84.45-.97zm-1.48-.33c.86 1.84 1.69 3.68 2.5 5.54.39.89.78 1.78 1.17 2.68.41.92.94 1.87 1.1 2.88.11.67-.81.91-1.17.43-.61-.81-.91-1.88-1.3-2.81l-1.11-2.7c-.77-1.87-1.52-3.74-2.24-5.63-.26-.67.74-1.01 1.04-.38l.01-.01z"/><path fill="#AD7E1E" d="M101.87 175.55c.91 2.51 1.84 5.01 2.8 7.5.46 1.2.93 2.39 1.4 3.59.48 1.25 1.02 2.49 1.31 3.8.14.65-.89 1-1.21.44-.68-1.16-1.12-2.45-1.59-3.7-.46-1.2-.89-2.41-1.33-3.62a422.7 422.7 0 0 1-2.65-7.55c-.28-.83.98-1.29 1.28-.47l-.01.01zm-2.38-.24c1.13 3.24 2.29 6.46 3.49 9.68 1.19 3.2 2.63 6.37 3.6 9.64.3 1.01-1.07 1.48-1.51.55-1.46-3.07-2.45-6.44-3.57-9.65-1.13-3.24-2.22-6.49-3.29-9.75-.27-.83.99-1.3 1.28-.47zm-2.46.49c1.75 4.68 3.39 9.4 4.88 14.17.73 2.34 1.4 4.7 2.06 7.06.63 2.24 1.64 4.7 1.72 7.04.03.74-.89.89-1.2.27-1.06-2.11-1.4-4.78-2.02-7.06-.65-2.37-1.33-4.72-2.01-7.08-1.35-4.72-2.76-9.42-4.24-14.11-.16-.52.61-.81.8-.29h.01zm-.68 3.64c1.47 5.32 2.92 10.65 4.22 16.01.66 2.69 1.31 5.37 1.96 8.06.61 2.53 1.42 5.09 1.68 7.69.09.86-1.17 1.14-1.47.33-.9-2.45-1.3-5.1-1.87-7.65l-1.92-8.52c-1.19-5.24-2.25-10.5-3.32-15.77-.08-.41.6-.56.71-.16l.01.01zm2.44 22.03c.96 2.74 1.8 5.51 2.62 8.29.39 1.34.83 2.66 1.22 4 .21.72.38 1.46.56 2.18.16.63.43 1.28.27 1.93-.13.55-.77.68-1.12.25-.45-.53-.5-1.32-.65-1.98l-.42-1.76c-.33-1.46-.59-2.94-.96-4.4-.7-2.77-1.44-5.52-2.17-8.28-.12-.44.52-.69.67-.24l-.02.01zM94.99 240c.31 1.75 2.73 2.83 4.02 3.76l5.55 4.01c3.59 2.59 7.08 5.59 10.89 7.84 3.46 2.04 7.39 1.03 11.15 1.86 3.69.81 6.79 3.06 9.86 5.13 3.21 2.18 6.44 4.16 10.15 5.38 4.17 1.37 8.48 2.22 12.6 3.75 8.06 2.99 15.48 7.51 22.73 12.06 6.58 4.13 13.43 8.48 17.04 15.63.65 1.28 2.63.64 2.14-.78-1.73-5.08-3.2-10.26-4.77-15.38-1.5-4.9-2.8-9.93-4.81-14.65-6.08-14.32-19.89-23.33-32.89-30.76-7.22-4.13-14.97-7.67-23.31-8.67-8.31-.99-16.8.38-24.4 3.87-.32.15-.52.39-.62.66-2.71.17-5.37.73-8.02 1.6-1.92.63-4.29 1.19-6.02 2.27-.87.55-1.47 1.38-1.28 2.44l-.01-.02zm100.61 47.93c-6.93-14.37-19.08-25.72-32.14-34.72-7.1-4.89-14.18-9.24-22.38-12.03-4.25-1.45-8.55-2.75-12.84-4.05-4.31-1.29-8.69-2.7-13.16-3.31 7.67-2.84 16.03-3.52 24.07-1.76 7.87 1.72 15.1 5.58 21.95 9.7 6.36 3.81 12.59 7.98 17.97 13.12 5.7 5.45 9.71 11.84 12.17 19.33 1.49 4.55 2.96 9.12 4.37 13.71l-.01.01zm-96.26-49.4c.89-.3 1.8-.58 2.7-.85 2.15-.64 4.34-1.18 6.58-1.4 4.51-.46 8.75.56 13.09 1.66 8.31 2.11 16.91 4.21 24.88 7.42 7.64 3.07 14.74 7.88 21.32 12.77 11.87 8.85 22.22 19.82 28.37 33.33-3.37-3.54-7.62-6.34-11.71-8.95-7.59-4.83-15.21-9.76-23.65-13.01-3.71-1.43-7.53-2.3-11.37-3.28-3.91-1-7.33-2.55-10.67-4.79-2.84-1.9-5.64-3.96-8.76-5.38-1.49-.68-3.08-1.2-4.7-1.43-1.75-.26-3.52-.06-5.28-.22-4.19-.36-7.89-3.93-11.21-6.26-3.64-2.55-7.32-5.05-10.93-7.66-1.54-1.12.33-1.6 1.35-1.95h-.01z"/><path fill="#AD7E1E" d="M100.31 237.39c19.65 10.41 41.06 17.12 60.48 27.95 5.34 2.98 10.411 6.34 15.241 10.09.09.07-.02.21-.12.14-17.89-13.13-39.66-19.23-59.82-27.86-5.73-2.45-11.32-5.14-16.68-8.33-1.18-.7-.37-2.66.899-1.99z"/><path fill="#AD7E1E" d="M135.04 248.08c9.57 3.47 18.77 7.84 27.41 13.23 8.59 5.36 16.3 11.77 23.68 18.68 4.18 3.92 8.31 8.05 11.7 12.68.88 1.2-.93 2.4-1.87 1.31-4.2-4.93-8.16-10.05-12.8-14.6-4.54-4.44-9.49-8.51-14.61-12.26-10.4-7.6-21.69-13.95-33.75-18.49-.36-.14-.11-.68.25-.55h-.01zm-19.75-15.41c3.19-.66 6.36-.17 9.51.44 2.89.56 5.76 1.23 8.59 2.04 5.35 1.52 10.58 3.42 15.65 5.71 10.48 4.72 19.86 11.17 28.52 18.69.16.14-.05.38-.21.25-8.42-7.21-18.23-12.9-28.4-17.25a112.35 112.35 0 0 0-15.89-5.44c-5.46-1.42-11.95-3.47-17.58-2.25-1.37.3-1.57-1.89-.2-2.18l.01-.01zm-45.54 78.6c3.36-4.05 8.82-4.57 13.48-6.27 5.36-1.96 9.68-6.25 13.07-10.72 6.65-8.79 10.16-19.98 9.56-31-.07-1.35-.13-2.83-.75-4.06-1.01-2-3.27-1.79-5.18-1.62-3.71.33-7.27 1.38-10.62 2.99-.95.46-1.48-1.07-.56-1.54 3.05-1.55 6.3-2.63 9.69-3.16 2.52-.39 5.73-.89 7.66 1.2 1.79 1.93 1.82 4.95 1.89 7.43.08 2.96-.11 5.93-.57 8.86-1.85 11.79-8.18 23.51-17.72 30.85-5.47 4.21-12.88 4.49-18.06 9.07-1.2 1.06-2.85-.85-1.87-2.03h-.02z"/><path fill="#AD7E1E" d="M40.45 331.6c.13-4.63-1.2-9.05-1.49-13.64-.29-4.53.29-9.05.96-13.52.66-4.42 1.36-8.83 2.31-13.19 1.68-7.73 4.07-15.8 8.81-22.26 2.22-3.02 4.99-5.57 8.38-7.23 4.01-1.96 8.51-2.92 12.79-4.1 2.57-.7 5.15-1.38 7.72-2.06 2.19-.58 4.55-1.52 6.84-1.58 1.53-.04 3.05.54 3.74 1.98.65 1.35.39 2.86-.85 3.74-1.19.84-2.44-.97-1.29-1.85 1.2-.92-1.54-1.44-1.95-1.4-1.06.11-2.15.54-3.16.83-1.98.56-3.95 1.13-5.93 1.69-3.87 1.11-7.76 2.14-11.65 3.19-3.5.94-6.88 2.16-9.68 4.54-2.66 2.27-4.61 5.28-6.17 8.39-3.4 6.8-5.19 14.29-6.5 21.73-1.38 7.83-3.14 16.06-1.52 23.96.87 4.25 1.63 8.2 1.2 12.57-.34 3.41-1.14 6.73-2.08 10.01 9.71-5.72 17.65-13.74 23.16-23.66 3.3-5.95 6.06-12.21 9.55-18.05 3.02-5.06 6.67-9.71 10.08-14.5 4.12-5.78 8.08-11.36 10.05-18.28.08-.28.53-.22.45.08-1.46 5.71-4.07 11.12-6.97 16.22-3.09 5.43-6.88 10.43-10.04 15.83-3.52 6.02-5.96 12.64-9.63 18.57-3.23 5.22-7.22 9.79-11.51 14.15-4.82 4.91-10.36 9.19-16.28 12.7-.72.43-1.82-.09-1.62-1.02.98-4.55 2.14-9.16 2.27-13.83l.01-.01z"/><path fill="#AD7E1E" d="M42.84 338.23c4.53-11.3 8.81-22.71 14.05-33.7 5.19-10.89 11.19-21.44 18.32-31.18 4.05-5.52 8.51-10.68 13.28-15.58 1.09-1.12 2.97.48 1.86 1.54-17.54 16.87-28.24 38.92-38.74 60.5-2.98 6.12-5.71 12.34-8.41 18.58-.1.23-.45.07-.36-.16zm33.24-31.2c3.55-2.91 6.41-6.5 9.12-10.18 2.96-4.02 5.97-8.06 8.43-12.42 2.3-4.07 4.09-8.42 5.61-12.83 1.65-4.78 3.66-9.99 2.63-15.1-.04-.18.26-.24.31-.07 1.52 4.73.14 9.43-1.27 14.02-1.51 4.91-3.34 9.77-5.77 14.3-2.38 4.44-5.36 8.55-8.29 12.64-2.88 4.03-5.92 7.93-9.73 11.12-.88.74-1.92-.74-1.03-1.47l-.01-.01z"/><path fill="#AD7E1E" d="M83.17 305.31c9.73-9.71 17.61-21.85 20.56-35.42.04-.17.31-.13.27.05-2.87 13.82-8.87 26.89-19.19 36.74-.98.93-2.63-.39-1.65-1.37h.01zm-1.33-25.36c1.84-3.36 3.59-6.75 5.09-10.28 1.59-3.74 2.52-7.59 3.76-11.44.34-1.05 1.94-.48 1.79.54-.54 3.76-2.31 7.52-3.94 10.91-1.81 3.75-3.9 7.37-5.99 10.97-4.3 7.4-8.97 14.56-13.82 21.61-.07.1-.21-.02-.14-.12 4.76-7.18 9.11-14.64 13.26-22.2l-.01.01zm-41.67 64.96c2.67-2.16 5.2-4.32 7.38-6.99 2.24-2.74 4.07-5.73 5.9-8.75 3.77-6.23 6.87-12.83 11.05-18.8.09-.13.29.03.2.16-4.41 6.54-6.88 14.04-10.69 20.9-3.12 5.61-7.32 11.73-13.2 14.69-.74.37-1.2-.75-.63-1.22l-.01.01z"/><path fill="#AD7E1E" d="M39.62 344.5c.86-2.83 2.33-5.58 3.55-8.27 1.2-2.64 2.41-5.28 3.65-7.9 2.53-5.34 5.14-10.64 7.8-15.91.07-.14.3-.05.23.1-2.38 5.4-4.7 10.83-6.94 16.29-1.1 2.69-2.2 5.37-3.29 8.07-1.11 2.75-2.03 5.71-3.41 8.34-.54 1.02-1.92.34-1.6-.72h.01z"/><path fill="#AD7E1E" d="M41.26 344.67c9.5-18.15 19.78-35.85 29.62-53.81.09-.17.36-.05.27.12-9.43 18.14-18.41 36.5-28.19 54.46-.57 1.05-2.26.3-1.7-.77zm15.07-68.68c2.27-3.52 4.85-6.84 7.65-9.95 2.72-3.02 5.69-6.32 9.06-8.62.88-.6 2.11.62 1.31 1.43-2.87 2.9-6.07 5.44-8.87 8.44-2.79 2.99-5.38 6.14-7.82 9.42-4.94 6.66-8.96 14.08-11.8 21.88-.06.17-.31.05-.25-.11A97.905 97.905 0 0 1 56.33 276v-.01z"/><path fill="#AD7E1E" d="M44.13 306.88c1.74-4.58 3.99-8.98 6.42-13.23 4.83-8.43 10.44-16.39 16.31-24.13.12-.15.34.04.23.19-5.62 7.94-10.99 16.1-15.31 24.83-2.08 4.21-3.92 8.53-5.58 12.93-1.69 4.49-2.64 9.19-4.23 13.69-.34.96-1.65.4-1.6-.48.29-4.68 2.1-9.45 3.76-13.8zm1.11 13.31c1.92-5.35 4.05-10.63 6.38-15.82 4.55-10.14 9.91-19.92 15.95-29.25 3.2-4.93 6.53-9.79 11.27-13.36.16-.12.32.12.17.25-5.37 4.55-8.94 10.74-12.36 16.79-3.44 6.09-6.74 12.27-9.74 18.6-2.99 6.33-5.75 12.78-8.17 19.35-1.21 3.29-2.34 6.6-3.39 9.94-1.04 3.32-1.82 6.77-3.11 10-.39.98-1.86.48-1.73-.52.73-5.41 2.89-10.85 4.72-15.98h.01zm55.6-69.79c.03-2.17.03-4.35 0-6.52 0-.51.76-.6.8-.07.19 2.2.36 4.4.49 6.6.13 2.17.35 4.38.1 6.55-.09.81-1.31.73-1.39-.05-.23-2.15-.03-4.35 0-6.51z"/><path fill="#AD7E1E" d="M99.14 241.44c.53 1.93.999 3.89 1.409 5.85.41 1.98.82 4 .99 6.02.06.72-.97.79-1.1.1-.35-1.93-.61-3.87-.99-5.79-.39-1.95-.85-3.88-1.37-5.8-.19-.69.87-1.09 1.06-.39v.01z"/><path fill="#AD7E1E" d="M96.98 240.32c.63 2.6 1.31 5.2 2.04 7.77.36 1.27.72 2.53 1.099 3.79.37 1.23.89 2.48 1.1 3.75.09.53-.64.61-.85.19-.56-1.15-.84-2.52-1.21-3.75a218.971 218.971 0 0 1-3.09-11.42c-.15-.6.76-.94.91-.33zm-1.1-.32c1.15 5.51 2.34 11.01 3.61 16.49.17.74-.86.98-1.02.23-1.22-5.53-2.33-11.07-3.28-16.66-.08-.44.6-.49.69-.06zm-.98 2.85c.39 2.39.83 4.77 1.26 7.15.21 1.17.43 2.33.66 3.49.23 1.16.69 2.45.69 3.63 0 .55-.73.76-.96.22-.43-1.05-.49-2.35-.68-3.47-.21-1.21-.4-2.43-.59-3.64-.37-2.43-.66-4.87-.93-7.32-.04-.36.49-.4.55-.05v-.01zm-.72 6.2c.14 1.37.35 2.73.62 4.08.14.67.3 1.33.48 1.99.19.67.43 1.34.6 2.02.17.72-.83 1.13-1.1.4-.49-1.31-.71-2.79-.98-4.16-.27-1.41-.47-2.82-.6-4.25-.06-.64.92-.73.99-.09l-.01.01zm-10.88 89c1.73 5.73 3.65 11.27 6.24 16.67.91 1.89 1.67 4.08 4.05 4.26 2.82.21 5.88-.38 8.69-.61.72-.06 1.19-.71 1.16-1.4-.44-10.48-3.87-20.81-5.64-31.11-.9-5.26-1.53-10.59-1.22-15.94.3-5.35 1.36-10.62 2.57-15.83.29-1.23-1.64-1.54-1.93-.32-1.29 5.31-2.41 10.69-2.74 16.16-.31 5.19.18 10.34 1.11 15.44.98 5.37 2.41 10.66 3.51 16 .51 2.49 1 5 1.33 7.53.19 1.47.29 2.91.34 4.36-2.06-4.1-4.15-8.18-6.16-12.3-.79-1.62-1.46-4.05-3.4-4.62-2.1-.61-4.88.11-7.03.29-.72.06-1.1.78-.9 1.43l.02-.01zm2.41.58c1.89-.2 4.49-.5 5.45.52.63.67 1.02 2.08 1.42 2.93.47.99.94 1.99 1.4 2.99 1.65 3.67 3.35 7.32 5.07 10.96-1.63.14-3.25.27-4.87.27-1.19 0-1.38-.86-1.91-1.85-.59-1.11-1.16-2.24-1.7-3.38-1.89-4.01-3.6-8.18-4.86-12.45v.01z"/><path fill="#AD7E1E" d="M97.48 354.11c.22-.79.43-1.58.64-2.38.1-.4.72-.31.64.1-.16.82-.33 1.63-.51 2.45-.18.82-.35 1.64-.67 2.41-.15.36-.67.17-.63-.19.09-.82.32-1.6.54-2.39h-.01zm-1.94 1.62c.19-.69.36-1.38.55-2.06.37-1.37.7-2.76 1-4.15.1-.45.75-.34.7.12-.15 1.44-.36 2.87-.62 4.29-.13.7-.3 1.39-.47 2.07-.17.67-.28 1.51-.69 2.07-.27.37-.91.16-.93-.29-.04-.68.3-1.4.48-2.05h-.02zm-1.36-.36c.21-.81.41-1.63.6-2.45.39-1.67.73-3.34 1.03-5.03.11-.6 1.02-.45.93.15-.26 1.72-.56 3.44-.9 5.14-.17.85-.36 1.7-.56 2.55-.19.83-.37 1.68-.72 2.46-.24.55-1.05.28-.98-.3.1-.86.38-1.7.6-2.54v.02zm-1.09-2.28c.23-.89.46-1.78.69-2.68.47-1.85.93-3.71 1.37-5.58.09-.37.65-.29.59.1-.31 1.88-.63 3.76-.96 5.64-.16.9-.33 1.81-.49 2.71-.17.94-.26 1.96-.66 2.84-.23.5-1.16.44-1.14-.19.03-.97.37-1.91.61-2.84h-.01zm-1.66-1.76a226.18 226.18 0 0 0 2.35-8.61c.14-.57 1.02-.44.91.15-.38 2-.79 3.99-1.22 5.98-.21.98-.43 1.95-.65 2.92-.23 1-.42 2.02-.87 2.94-.34.69-1.3.35-1.25-.38.08-1.04.44-2.03.73-3.02v.02zm-1.25-2.64c.25-.87.52-1.73.78-2.59.52-1.68 1.07-3.35 1.65-5.02.21-.61 1.27-.3 1.09.33-.47 1.67-.91 3.34-1.33 5.02-.21.84-.41 1.68-.6 2.53-.18.81-.26 1.81-.68 2.53-.36.62-1.46.61-1.49-.25-.04-.85.34-1.74.57-2.55h.01z"/><path fill="#AD7E1E" d="M89.03 346.83c.18-.86.38-1.72.61-2.57.46-1.73 1.02-3.43 1.68-5.09.29-.74 1.37-.23 1.11.5-.56 1.61-1.03 3.25-1.39 4.91-.18.83-.34 1.66-.48 2.5-.14.83-.18 1.7-.38 2.52-.09.38-.39.67-.8.65-.35-.02-.76-.31-.75-.7.02-.91.23-1.82.41-2.72h-.01zm-1.4-2.45c.19-.64.38-1.28.57-1.93.4-1.33.8-2.67 1.19-4 .1-.33.36-.58.73-.52.31.05.61.4.52.73l-1.08 4.1-.53 2.01c-.19.71-.34 1.42-.64 2.1-.32.73-1.42.37-1.31-.4.1-.72.34-1.4.54-2.09h.01zm-1.36-4.08c.02-.06.04-.12.06-.19-.02.08-.02.06.01-.05.03-.09.06-.19.08-.28.07-.24.13-.47.2-.71.25-.95.42-1.9.82-2.78v.02c.08-.17.21-.31.39-.38.41-.15.87.14.91.58.1.97-.11 1.96-.32 2.91-.1.45-.21.89-.32 1.33-.14.52-.26 1.06-.5 1.53-.21.41-.64.62-1.09.49a.914.914 0 0 1-.64-1.01c.08-.5.26-.98.41-1.46h-.01zm-.89-10c2.29-1.99 1.62-5.23 1.46-7.93-.19-3.15-.24-6.3-.15-9.46.08-3.11.16-6.3.89-9.33.19-.77 1.47-.85 1.48.05.05 3.35-.36 6.7-.44 10.04-.07 3.15 0 6.31.21 9.46.14 2.17.41 4.57-.55 6.61-.55 1.16-1.92 1.84-2.34 2.99-.48 1.32-.37 3.18-.53 4.58-.14 1.2-1.96.88-1.84-.3.24-2.33-.07-5.06 1.82-6.71h-.01z"/><path fill="#AD7E1E" d="M86.99 334.94c.06-.82.11-1.64.2-2.45.18-1.6.42-3.19.67-4.77.11-.66 1.09-.49 1.02.17-.17 1.57-.3 3.15-.41 4.72-.05.79-.13 1.57-.18 2.36-.05.77-.03 1.59-.16 2.36-.13.7-1.2.69-1.26-.04-.06-.77.06-1.58.11-2.35h.01zm3.1-22.4c0-.28.43-.33.44-.04.21 8.23.59 16.48 1.23 24.69.09 1.2-1.83 1.34-1.83.17-.03-8.28 0-16.54.17-24.82h-.01zm2.58 23.12c-.18-2.22-.22-4.43-.22-6.65 0-4.21-.08-8.41.11-12.62 0-.18.32-.17.32.01.09 4.16.19 8.38.7 12.51.25 2.04.56 4.06.8 6.1.25 2.11.7 4.24.67 6.36-.01.84-1.28 1.3-1.56.35-.57-1.96-.66-4.03-.83-6.06h.01zm2.45-6.34c-.01-.46.66-.53.71-.07.36 3.12.76 6.24 1.17 9.35.2 1.53.42 3.05.66 4.57.24 1.55.71 3.17.78 4.74.04.75-1.1 1.09-1.34.3-.44-1.44-.51-3.06-.72-4.55-.22-1.58-.42-3.17-.6-4.76-.36-3.19-.58-6.37-.67-9.58h.01zm-6.99-22.5c.64-.68 1.43-1.26 2.13-1.89.7-.63 1.39-1.26 2.09-1.89 1.4-1.27 2.76-2.58 4.09-3.92.41-.41 1.11.14.71.59-1.26 1.43-2.55 2.84-3.89 4.2-.66.67-1.34 1.32-2.02 1.96-.7.66-1.39 1.4-2.18 1.95-.62.44-1.47-.43-.93-1.01v.01zm-1.17 3.57c.63-.77 1.48-1.42 2.2-2.1.75-.7 1.5-1.39 2.26-2.08l4.5-4.05c.45-.41 1.15.35.73.79l-4.21 4.36c-.68.71-1.37 1.4-2.07 2.09-.74.73-1.45 1.58-2.28 2.21-.77.58-1.72-.5-1.13-1.23v.01z"/></svg>